<svg version="1.1" id="Layer_1" xmlns="http://www.w3.org/2000/svg" xmlns:xlink="http://www.w3.org/1999/xlink" x="0px" y="0px"
	 width="100%" viewBox="0 0 512 512" enable-background="new 0 0 512 512" xml:space="preserve">
<path fill="#54001A" opacity="1.000000" stroke="none" 
	d="
M1.000001,427.000000 
	C1.000000,313.977997 1.000000,200.955978 1.377437,87.324036 
	C2.516713,82.847511 3.016585,78.907074 4.082513,75.126213 
	C11.512716,48.771194 27.025120,29.000769 52.294067,16.944054 
	C53.965614,16.158281 55.232323,15.371353 56.536678,14.530279 
	C56.574322,14.476133 56.702667,14.445767 57.113869,14.559351 
	C60.495316,15.044479 63.355381,15.129842 65.006454,11.600714 
	C65.101204,11.372438 65.478386,11.052950 65.478386,11.052950 
	C65.478386,11.052950 65.970726,11.097068 66.081009,11.324463 
	C66.778679,11.345926 67.366066,11.139995 67.967957,10.969903 
	C67.982445,11.005743 67.935898,10.942458 68.391266,10.965844 
	C76.531563,10.274513 84.214745,8.962327 91.901672,8.940025 
	C151.002350,8.768556 210.108612,8.375884 269.203583,8.981421 
	C328.164764,9.585586 387.173859,6.312794 446.395203,11.054195 
	C447.459259,11.472719 448.216064,11.791187 449.208740,12.379524 
	C452.305420,13.425055 455.166290,14.200715 458.014954,14.988987 
	C458.002747,15.001596 458.018555,14.972648 458.138580,15.303349 
	C459.541748,16.070351 460.824921,16.506651 462.460388,17.000496 
	C484.437622,27.900757 499.158813,44.972759 507.531128,67.468170 
	C509.990204,74.075371 511.211426,81.143257 513.000000,88.000000 
	C513.000000,200.688675 513.000000,313.377350 512.622192,426.674927 
	C510.123840,443.274567 504.270721,457.799530 494.528809,470.613434 
	C482.127350,486.925507 466.122437,498.055511 445.627411,503.016785 
	C442.458374,503.671417 439.733917,504.346436 436.798035,505.190491 
	C436.063629,505.457764 435.540710,505.556000 434.658813,505.457794 
	C433.970337,505.217102 433.640747,505.134094 433.311188,505.134125 
	C317.329163,505.147980 201.347107,505.165009 85.365082,505.206238 
	C83.236160,505.207001 81.107346,505.497101 78.591873,505.639038 
	C76.159660,505.092865 74.127281,504.501373 72.066475,504.035675 
	C39.781796,496.739075 18.302261,477.017181 6.460436,446.516632 
	C4.027090,440.249146 2.789015,433.517639 1.000001,427.000000 
M191.763062,352.763672 
	C192.175110,351.420441 192.946457,350.077484 192.947647,348.733917 
	C193.006546,282.309631 193.012421,215.885330 192.915710,149.461166 
	C192.913544,147.973297 191.662827,146.487259 190.232422,144.865707 
	C189.481018,142.410904 188.862885,139.903992 187.930588,137.519943 
	C187.326355,135.974823 186.457901,133.612274 185.359985,133.397934 
	C183.735077,133.080734 181.801331,134.345581 179.069260,135.064453 
	C168.085587,135.076950 157.101852,135.070496 146.118271,135.109100 
	C139.599487,135.132004 139.255493,135.493515 139.256027,141.796219 
	C139.261887,210.029007 139.271393,278.261810 139.270172,346.494598 
	C139.270126,348.654907 139.165710,350.815216 138.408844,353.137268 
	C138.013245,355.317047 136.744629,357.873474 137.475388,359.567352 
	C138.162460,361.160034 140.987457,362.803528 142.823746,362.750824 
	C149.160660,362.568909 155.475052,361.180237 161.800919,361.160187 
	C167.626877,361.141693 173.485641,362.103058 179.277039,362.981598 
	C186.149002,364.024139 187.911758,362.662689 188.164658,355.998566 
	C188.203903,354.964539 190.009827,353.997559 191.763062,352.763672 
M241.101868,337.379730 
	C247.984268,342.544495 254.368378,348.628052 261.850952,352.686157 
	C278.311340,361.613251 296.274231,364.113983 314.970154,363.453949 
	C335.811554,362.718201 355.869995,358.934967 375.294922,351.409546 
	C378.724396,350.080902 379.687378,348.174164 379.471344,344.613892 
	C378.866272,334.642914 378.347626,324.648773 378.331146,314.662903 
	C378.231476,254.176376 378.280945,193.689590 378.283142,133.202896 
	C378.283295,129.376907 378.147217,125.541969 378.363159,121.727539 
	C378.567841,118.112892 377.363708,116.778603 373.536621,116.848770 
	C360.877106,117.080887 348.210815,116.933899 335.547211,116.968460 
	C334.128601,116.972336 332.710602,117.206703 330.911133,117.368439 
	C330.911133,119.657204 330.912872,121.468781 330.910889,123.280357 
	C330.889893,142.442673 330.678589,161.607925 330.976013,180.765289 
	C331.053436,185.752716 329.378052,186.416016 324.947906,186.237030 
	C301.707489,185.298019 279.568329,189.080978 259.586060,202.014374 
	C210.011490,234.101166 210.429169,304.097107 241.101868,337.379730 
z"/>
<path fill="#FFFFFF" opacity="1.000000" stroke="none" 
	d="
M65.970726,11.097067 
	C65.970726,11.097068 65.478386,11.052950 65.478386,11.052950 
	C65.478386,11.052950 65.101204,11.372438 64.626389,11.640007 
	C61.668598,12.753639 59.185635,13.599704 56.702667,14.445768 
	C56.702667,14.445767 56.574322,14.476133 56.217632,14.626103 
	C54.537037,15.498348 53.213135,16.220623 51.889229,16.942898 
	C27.025120,29.000769 11.512716,48.771194 4.082513,75.126213 
	C3.016585,78.907074 2.516713,82.847511 1.377437,86.857056 
	C1.000000,58.351639 1.000000,29.703279 1.000003,1.056909 
	C171.666672,1.058898 342.333344,1.058898 513.000000,1.058898 
	C513.000000,29.766090 513.000000,58.414387 513.000000,87.531342 
	C511.211426,81.143257 509.990204,74.075371 507.531128,67.468170 
	C499.158813,44.972759 484.437622,27.900757 462.288208,16.706112 
	C460.515350,15.893674 459.266937,15.433164 458.018555,14.972651 
	C458.018555,14.972648 458.002747,15.001596 457.793762,14.686628 
	C454.714172,13.617655 451.843536,12.863650 448.972900,12.109652 
	C448.216064,11.791187 447.459259,11.472719 446.145935,10.743217 
	C437.747192,9.286418 429.906555,7.344079 422.062439,7.329949 
	C311.929504,7.131571 201.795944,7.119090 91.663177,7.357818 
	C83.751534,7.374968 75.844872,9.693810 67.935898,10.942459 
	C67.935898,10.942458 67.982445,11.005743 67.633720,10.954826 
	C66.846909,10.968295 66.408813,11.032681 65.970726,11.097067 
z"/>
<path fill="#FFFFFF" opacity="1.000000" stroke="none" 
	d="
M446.071991,503.037170 
	C466.122437,498.055511 482.127350,486.925507 494.528809,470.613434 
	C504.270721,457.799530 510.123840,443.274567 512.622192,427.141907 
	C513.000000,455.648315 513.000000,484.296631 513.000000,512.943237 
	C342.333313,512.941528 171.666656,512.941528 1.000000,512.941528 
	C1.000000,484.567841 1.000000,456.252594 1.000001,427.468658 
	C2.789015,433.517639 4.027090,440.249146 6.460436,446.516632 
	C18.302261,477.017181 39.781796,496.739075 72.066475,504.035675 
	C74.127281,504.501373 76.159660,505.092865 79.000534,505.794342 
	C84.278610,506.248566 88.761307,506.781921 93.244240,506.783813 
	C202.375229,506.830322 311.506226,506.835022 420.637207,506.770874 
	C425.430939,506.768066 430.224243,506.042908 435.017761,505.654236 
	C435.540710,505.556000 436.063629,505.457764 437.206116,505.223450 
	C440.574432,504.404022 443.323212,503.720612 446.071991,503.037170 
z"/>
<path fill="#FD3068" opacity="1.000000" stroke="none" 
	d="
M240.840698,337.136841 
	C210.429169,304.097107 210.011490,234.101166 259.586060,202.014374 
	C279.568329,189.080978 301.707489,185.298019 324.947906,186.237030 
	C329.378052,186.416016 331.053436,185.752716 330.976013,180.765289 
	C330.678589,161.607925 330.889893,142.442673 330.910889,123.280357 
	C330.912872,121.468781 330.911133,119.657204 330.911133,117.368439 
	C332.710602,117.206703 334.128601,116.972336 335.547211,116.968460 
	C348.210815,116.933899 360.877106,117.080887 373.536621,116.848770 
	C377.363708,116.778603 378.567841,118.112892 378.363159,121.727539 
	C378.147217,125.541969 378.283295,129.376907 378.283142,133.202896 
	C378.280945,193.689590 378.231476,254.176376 378.331146,314.662903 
	C378.347626,324.648773 378.866272,334.642914 379.471344,344.613892 
	C379.687378,348.174164 378.724396,350.080902 375.294922,351.409546 
	C355.869995,358.934967 335.811554,362.718201 314.970154,363.453949 
	C296.274231,364.113983 278.311340,361.613251 261.850952,352.686157 
	C254.368378,348.628052 247.984268,342.544495 240.840698,337.136841 
M288.152008,234.571259 
	C281.542297,239.302307 276.144836,245.051483 272.736298,252.549545 
	C268.292236,262.325500 267.967133,272.756348 269.242157,282.976654 
	C271.533905,301.346832 279.985870,314.539581 297.353638,319.998688 
	C307.261108,323.112854 317.375000,322.700043 327.523560,321.778076 
	C331.103027,321.452881 330.917938,318.965027 330.913666,316.351410 
	C330.872742,291.357147 330.885925,266.362823 330.883759,241.368515 
	C330.883362,236.741730 330.883698,232.114944 330.883698,227.235733 
	C315.538757,224.052292 301.640930,226.029114 288.152008,234.571259 
z"/>
<path fill="#FD2F67" opacity="1.000000" stroke="none" 
	d="
M139.109940,352.975525 
	C139.165710,350.815216 139.270126,348.654907 139.270172,346.494598 
	C139.271393,278.261810 139.261887,210.029007 139.256027,141.796219 
	C139.255493,135.493515 139.599487,135.132004 146.118271,135.109100 
	C157.101852,135.070496 168.085587,135.076950 179.944000,135.072449 
	C185.710464,134.514908 187.226929,136.824219 187.058502,141.527023 
	C186.772446,149.514832 186.987106,157.520432 186.985245,165.518555 
	C186.970520,228.337219 186.912109,291.155945 187.022263,353.974396 
	C187.030685,358.779144 185.586624,360.378448 180.709122,360.229279 
	C169.888626,359.898438 159.050766,360.131226 148.219986,360.142426 
	C140.619827,360.150299 140.619827,360.156372 139.109940,352.975525 
z"/>
<path fill="#5F001A" opacity="1.000000" stroke="none" 
	d="
M138.759399,353.056396 
	C140.619827,360.156372 140.619827,360.150299 148.219986,360.142426 
	C159.050766,360.131226 169.888626,359.898438 180.709122,360.229279 
	C185.586624,360.378448 187.030685,358.779144 187.022263,353.974396 
	C186.912109,291.155945 186.970520,228.337219 186.985245,165.518555 
	C186.987106,157.520432 186.772446,149.514832 187.058502,141.527023 
	C187.226929,136.824219 185.710464,134.514908 180.408920,135.008636 
	C181.801331,134.345581 183.735077,133.080734 185.359985,133.397934 
	C186.457901,133.612274 187.326355,135.974823 187.930588,137.519943 
	C188.862885,139.903992 189.481018,142.410904 190.614960,145.401672 
	C190.997940,214.958267 190.998367,283.978912 190.998779,352.999573 
	C190.009827,353.997559 188.203903,354.964539 188.164658,355.998566 
	C187.911758,362.662689 186.149002,364.024139 179.277039,362.981598 
	C173.485641,362.103058 167.626877,361.141693 161.800919,361.160187 
	C155.475052,361.180237 149.160660,362.568909 142.823746,362.750824 
	C140.987457,362.803528 138.162460,361.160034 137.475388,359.567352 
	C136.744629,357.873474 138.013245,355.317047 138.759399,353.056396 
z"/>
<path fill="#6D3042" opacity="1.000000" stroke="none" 
	d="
M68.391266,10.965845 
	C75.844872,9.693810 83.751534,7.374968 91.663177,7.357818 
	C201.795944,7.119090 311.929504,7.131571 422.062439,7.329949 
	C429.906555,7.344079 437.747192,9.286418 445.838715,10.643162 
	C387.173859,6.312794 328.164764,9.585586 269.203583,8.981421 
	C210.108612,8.375884 151.002350,8.768556 91.901672,8.940025 
	C84.214745,8.962327 76.531563,10.274513 68.391266,10.965845 
z"/>
<path fill="#703345" opacity="1.000000" stroke="none" 
	d="
M434.658813,505.457764 
	C430.224243,506.042908 425.430939,506.768066 420.637207,506.770874 
	C311.506226,506.835022 202.375229,506.830322 93.244240,506.783813 
	C88.761307,506.781921 84.278610,506.248566 79.387138,505.807495 
	C81.107346,505.497101 83.236160,505.207001 85.365082,505.206238 
	C201.347107,505.165009 317.329163,505.147980 433.311188,505.134125 
	C433.640747,505.134094 433.970337,505.217102 434.658813,505.457764 
z"/>
<path fill="#4B021D" opacity="1.000000" stroke="none" 
	d="
M191.380920,352.881622 
	C190.998367,283.978912 190.997940,214.958267 190.996002,145.468994 
	C191.662827,146.487259 192.913544,147.973297 192.915710,149.461166 
	C193.012421,215.885330 193.006546,282.309631 192.947647,348.733917 
	C192.946457,350.077484 192.175110,351.420441 191.380920,352.881622 
z"/>
<path fill="#6D3042" opacity="1.000000" stroke="none" 
	d="
M57.113869,14.559351 
	C59.185635,13.599704 61.668598,12.753639 64.531639,11.868282 
	C63.355381,15.129842 60.495316,15.044479 57.113869,14.559351 
z"/>
<path fill="#6D3042" opacity="1.000000" stroke="none" 
	d="
M449.208740,12.379520 
	C451.843536,12.863650 454.714172,13.617655 457.805969,14.674018 
	C455.166290,14.200715 452.305420,13.425055 449.208740,12.379520 
z"/>
<path fill="#703345" opacity="1.000000" stroke="none" 
	d="
M445.627411,503.016815 
	C443.323212,503.720612 440.574432,504.404022 437.417542,505.054413 
	C439.733917,504.346436 442.458374,503.671417 445.627411,503.016815 
z"/>
<path fill="#6D3042" opacity="1.000000" stroke="none" 
	d="
M52.294067,16.944054 
	C53.213135,16.220623 54.537037,15.498348 56.179989,14.680249 
	C55.232323,15.371353 53.965614,16.158281 52.294067,16.944054 
z"/>
<path fill="#6D3042" opacity="1.000000" stroke="none" 
	d="
M458.138580,15.303352 
	C459.266937,15.433164 460.515350,15.893674 461.935913,16.648569 
	C460.824921,16.506651 459.541748,16.070351 458.138580,15.303352 
z"/>
<path fill="#6D3042" opacity="1.000000" stroke="none" 
	d="
M66.081009,11.324463 
	C66.408813,11.032681 66.846909,10.968295 67.619232,10.918985 
	C67.366066,11.139995 66.778679,11.345926 66.081009,11.324463 
z"/>
<path fill="#56011A" opacity="1.000000" stroke="none" 
	d="
M288.431946,234.337433 
	C301.640930,226.029114 315.538757,224.052292 330.883698,227.235733 
	C330.883698,232.114944 330.883362,236.741730 330.883759,241.368515 
	C330.885925,266.362823 330.872742,291.357147 330.913666,316.351410 
	C330.917938,318.965027 331.103027,321.452881 327.523560,321.778076 
	C317.375000,322.700043 307.261108,323.112854 297.353638,319.998688 
	C279.985870,314.539581 271.533905,301.346832 269.242157,282.976654 
	C267.967133,272.756348 268.292236,262.325500 272.736298,252.549545 
	C276.144836,245.051483 281.542297,239.302307 288.431946,234.337433 
z"/>
</svg>